<svg width="40" height="35" viewBox="0 0 40 35" fill="none" xmlns="http://www.w3.org/2000/svg">
<path d="M6.4165 0C2.88828 0 0 2.88828 0 6.4165C0 9.21912 1.82317 11.6163 4.34119 12.4844C3.67651 14.2908 3.32943 16.1987 3.31532 18.1235C3.3153 20.3145 3.74686 22.4841 4.58534 24.5084C5.42382 26.5327 6.6528 28.372 8.20212 29.9213C9.75144 31.4707 11.5907 32.6996 13.615 33.5381C15.6393 34.3766 17.8089 34.8082 20 34.8081C22.1911 34.8082 24.3607 34.3766 26.385 33.5381C28.4092 32.6996 30.2486 31.4707 31.7979 29.9213C33.3472 28.372 34.5762 26.5327 35.4147 24.5084C36.2531 22.4841 36.6847 20.3145 36.6847 18.1235C36.6844 16.1965 36.3503 14.2842 35.6972 12.4713C38.1954 11.5922 40 9.2049 40 6.4165C40 2.88828 37.1117 0 33.5835 0C31.1304 0 28.988 1.3971 27.9093 3.43391C25.4786 2.12471 22.7609 1.43918 20 1.43878C17.2423 1.45344 14.5313 2.15142 12.1094 3.47029C11.037 1.41383 8.88412 0 6.4165 0ZM6.4165 3.28125C6.82822 3.28125 7.23592 3.36234 7.61631 3.5199C7.99669 3.67746 8.34232 3.9084 8.63346 4.19953C8.92459 4.49067 9.15553 4.8363 9.31309 5.21669C9.47065 5.59707 9.55175 6.00477 9.55174 6.4165C9.55175 6.82822 9.47065 7.23592 9.31309 7.61631C9.15553 7.9967 8.92459 8.34232 8.63346 8.63346C8.34232 8.92459 7.99669 9.15554 7.61631 9.31309C7.23592 9.47065 6.82822 9.55175 6.4165 9.55174C6.00477 9.55175 5.59707 9.47065 5.21668 9.31309C4.8363 9.15554 4.49067 8.92459 4.19953 8.63346C3.9084 8.34232 3.67746 7.9967 3.5199 7.61631C3.36234 7.23592 3.28125 6.82822 3.28125 6.4165C3.28125 6.00477 3.36234 5.59707 3.5199 5.21669C3.67746 4.8363 3.9084 4.49067 4.19953 4.19953C4.49067 3.9084 4.83629 3.67746 5.21668 3.5199C5.59707 3.36234 6.00477 3.28125 6.4165 3.28125ZM33.5835 3.28125C33.9952 3.28125 34.4029 3.36234 34.7833 3.5199C35.1637 3.67746 35.5093 3.9084 35.8005 4.19953C36.0916 4.49067 36.3225 4.8363 36.4801 5.21669C36.6377 5.59707 36.7188 6.00477 36.7187 6.4165C36.7188 6.82822 36.6377 7.23592 36.4801 7.61631C36.3225 7.9967 36.0916 8.34232 35.8005 8.63346C35.5093 8.92459 35.1637 9.15554 34.7833 9.31309C34.4029 9.47065 33.9952 9.55175 33.5835 9.55174C33.1718 9.55175 32.7641 9.47065 32.3837 9.31309C32.0033 9.15554 31.6577 8.92459 31.3665 8.63346C31.0754 8.34232 30.8445 7.9967 30.6869 7.61631C30.5293 7.23592 30.4483 6.82822 30.4483 6.4165C30.4483 6.00477 30.5293 5.59707 30.6869 5.21669C30.8445 4.8363 31.0754 4.49067 31.3665 4.19953C31.6577 3.9084 32.0033 3.67746 32.3837 3.5199C32.7641 3.36234 33.1718 3.28125 33.5835 3.28125ZM13.7518 11.1337C14.0376 11.1337 14.3207 11.19 14.5848 11.2993C14.8489 11.4087 15.0888 11.569 15.2909 11.7711C15.4931 11.9732 15.6534 12.2132 15.7628 12.4772C15.8722 12.7413 15.9285 13.0244 15.9285 13.3102C15.9285 13.596 15.8722 13.8791 15.7628 14.1431C15.6534 14.4072 15.4931 14.6472 15.2909 14.8493C15.0888 15.0514 14.8489 15.2117 14.5848 15.3211C14.3207 15.4304 14.0376 15.4867 13.7518 15.4867C13.1746 15.4867 12.621 15.2574 12.2128 14.8492C11.8046 14.441 11.5753 13.8874 11.5753 13.3102C11.5753 12.733 11.8046 12.1794 12.2128 11.7712C12.621 11.363 13.1746 11.1337 13.7518 11.1337ZM26.2482 11.1337C26.8254 11.1337 27.379 11.363 27.7872 11.7712C28.1954 12.1794 28.4247 12.733 28.4247 13.3102C28.4247 13.8874 28.1954 14.441 27.7872 14.8492C27.379 15.2574 26.8254 15.4867 26.2482 15.4867C25.9624 15.4867 25.6793 15.4304 25.4152 15.3211C25.1511 15.2117 24.9112 15.0514 24.7091 14.8493C24.5069 14.6472 24.3466 14.4072 24.2372 14.1431C24.1278 13.8791 24.0715 13.596 24.0715 13.3102C24.0715 13.0244 24.1278 12.7413 24.2372 12.4772C24.3466 12.2132 24.5069 11.9732 24.7091 11.7711C24.9112 11.569 25.1511 11.4087 25.4152 11.2993C25.6793 11.19 25.9624 11.1337 26.2482 11.1337ZM19.834 17.0533C22.8763 17.0533 27.14 18.5655 25.3425 24.2075C24.143 27.9722 22.8763 31.3619 19.834 31.3619C16.7917 31.3619 15.525 27.9722 14.3256 24.2075C12.528 18.5655 16.7917 17.0533 19.834 17.0533ZM20 19.145C18.7954 19.145 17.1072 19.5382 17.8189 21.0051C18.2938 21.984 18.7954 22.8653 20 22.8653C21.2046 22.8653 21.7062 21.984 22.1811 21.0051C22.8928 19.5382 21.2046 19.145 20 19.145Z" fill="#22C55E"/>
</svg>
